<svg width="330" height="217" viewBox="0 0 330 217" fill="none" xmlns="http://www.w3.org/2000/svg">
<rect x="13.6211" y="7.49219" width="301.069" height="209.106" fill="black"/>
<mask id="path-2-outside-1_982_476" maskUnits="userSpaceOnUse" x="-0.980469" y="-0.296875" width="329" height="212" fill="black">
<rect fill="white" x="-0.980469" y="-0.296875" width="329" height="212"/>
<path d="M7.8723 111.703V7.06831H46.1145C53.0783 7.06831 58.3307 8.66173 61.8717 11.8486C65.4126 14.9174 67.1831 19.2255 67.1831 24.773V41.0613C67.1831 46.6088 65.7077 51.2711 62.7569 55.0481C59.8061 58.8251 55.2029 61.0086 48.9472 61.5988C52.9603 62.189 55.793 63.5463 57.4455 65.6709C59.216 67.6774 60.7504 70.9823 62.0487 75.5855L71.9633 111.703H49.1243L41.5112 77.0019C40.8031 74.1691 39.9768 71.8085 39.0326 69.92C38.2064 67.9135 36.967 66.9102 35.3146 66.9102H29.295V111.703H7.8723ZM29.295 52.5694H37.7933C41.0981 52.5694 43.4588 51.6842 44.8751 49.9137C46.2915 48.0252 46.9997 45.0744 46.9997 41.0613V28.491C46.9997 24.714 46.3505 22.0583 45.0522 20.5239C43.7538 18.9895 41.7473 18.2223 39.0326 18.2223H29.295V52.5694ZM76.9068 111.703V7.06831H125.064V21.5862H98.3295V49.5596H120.992V65.6709H98.3295V97.5394H125.064V111.703H76.9068ZM150.024 111.703V21.5862H133.736V7.06831H186.85V21.5862H170.562V111.703H150.024ZM194.173 111.703V7.06831H232.415C239.379 7.06831 244.631 8.66173 248.172 11.8486C251.713 14.9174 253.484 19.2255 253.484 24.773V41.0613C253.484 46.6088 252.008 51.2711 249.057 55.0481C246.107 58.8251 241.503 61.0086 235.248 61.5988C239.261 62.189 242.094 63.5463 243.746 65.6709C245.516 67.6774 247.051 70.9823 248.349 75.5855L258.264 111.703H235.425L227.812 77.0019C227.104 74.1691 226.277 71.8085 225.333 69.92C224.507 67.9135 223.268 66.9102 221.615 66.9102H215.596V111.703H194.173ZM215.596 52.5694H224.094C227.399 52.5694 229.759 51.6842 231.176 49.9137C232.592 48.0252 233.3 45.0744 233.3 41.0613V28.491C233.3 24.714 232.651 22.0583 231.353 20.5239C230.054 18.9895 228.048 18.2223 225.333 18.2223H215.596V52.5694ZM292.774 113.828C286.991 113.828 281.915 113.12 277.548 111.703C273.181 110.405 269.758 107.631 267.279 103.382C264.919 99.0148 263.739 92.582 263.739 84.0838V29.1992C263.739 22.9435 264.919 18.1042 267.279 14.6813C269.758 11.2584 273.181 8.8978 277.548 7.59945C282.033 6.18308 287.168 5.47489 292.951 5.47489C298.617 5.47489 303.633 6.18308 308 7.59945C312.485 9.01583 315.967 11.4355 318.446 14.8584C321.043 18.2813 322.341 23.0616 322.341 29.1992V83.9067C322.341 92.523 321.043 99.0148 318.446 103.382C315.967 107.631 312.485 110.405 308 111.703C303.633 113.12 298.558 113.828 292.774 113.828ZM292.774 101.788C294.545 101.788 296.079 101.493 297.377 100.903C298.794 100.313 299.856 99.3098 300.564 97.8935C301.391 96.359 301.804 94.2935 301.804 91.6968V28.314C301.804 25.7173 301.391 23.7107 300.564 22.2944C299.856 20.76 298.794 19.6977 297.377 19.1075C296.079 18.5174 294.545 18.2223 292.774 18.2223C291.004 18.2223 289.469 18.5174 288.171 19.1075C286.873 19.6977 285.81 20.76 284.984 22.2944C284.276 23.7107 283.922 25.7173 283.922 28.314V91.6968C283.922 94.2935 284.276 96.359 284.984 97.8935C285.81 99.3098 286.873 100.313 288.171 100.903C289.469 101.493 291.004 101.788 292.774 101.788Z"/>
<path d="M6.30882 203.703L22.4023 90.4739H48.8416L55.1641 143.161L62.636 90.4739H89.2669L73.1734 203.703H46.9257L39.6453 156.764L32.9397 203.703H6.30882ZM118.655 206.002C111.63 206.002 105.627 205.172 100.646 203.512C95.6642 201.851 92.0879 198.466 89.9165 193.357C87.7452 188.248 87.362 180.649 88.767 170.558L96.6221 114.614C97.5162 108.228 99.6876 103.183 103.136 99.4786C106.585 95.6469 111.055 92.9007 116.547 91.2403C122.04 89.5799 128.234 88.7496 135.132 88.7496C142.156 88.7496 148.16 89.5799 153.141 91.2403C158.25 92.9007 162.018 95.6469 164.445 99.4786C166.999 103.183 167.829 108.228 166.935 114.614L159.08 170.367C157.675 180.585 155.057 188.248 151.225 193.357C147.521 198.466 142.923 201.851 137.431 203.512C131.938 205.172 125.68 206.002 118.655 206.002ZM121.146 188.376C121.784 188.376 122.487 188.248 123.253 187.993C124.147 187.61 124.913 186.971 125.552 186.077C126.318 185.183 126.765 184.033 126.893 182.628L136.664 113.081C136.92 111.549 136.792 110.399 136.281 109.633C135.77 108.739 135.132 108.164 134.365 107.909C133.727 107.525 133.088 107.334 132.449 107.334C131.811 107.334 131.044 107.525 130.15 107.909C129.384 108.164 128.681 108.739 128.043 109.633C127.404 110.399 126.957 111.549 126.702 113.081L116.931 182.628C116.803 184.033 116.931 185.183 117.314 186.077C117.825 186.971 118.399 187.61 119.038 187.993C119.804 188.248 120.507 188.376 121.146 188.376ZM176.403 203.703L176.019 90.4739H207.632L202.842 173.624H203.225L222.767 90.4739H253.23L220.276 203.703H176.403ZM234.583 203.703L266.961 90.4739H311.985L311.793 203.703H277.499L278.457 187.226H271.368L267.728 203.703H234.583ZM273.475 172.474H280.373L285.162 114.423L273.475 172.474Z"/>
</mask>
<path d="M7.8723 111.703V7.06831H46.1145C53.0783 7.06831 58.3307 8.66173 61.8717 11.8486C65.4126 14.9174 67.1831 19.2255 67.1831 24.773V41.0613C67.1831 46.6088 65.7077 51.2711 62.7569 55.0481C59.8061 58.8251 55.2029 61.0086 48.9472 61.5988C52.9603 62.189 55.793 63.5463 57.4455 65.6709C59.216 67.6774 60.7504 70.9823 62.0487 75.5855L71.9633 111.703H49.1243L41.5112 77.0019C40.8031 74.1691 39.9768 71.8085 39.0326 69.92C38.2064 67.9135 36.967 66.9102 35.3146 66.9102H29.295V111.703H7.8723ZM29.295 52.5694H37.7933C41.0981 52.5694 43.4588 51.6842 44.8751 49.9137C46.2915 48.0252 46.9997 45.0744 46.9997 41.0613V28.491C46.9997 24.714 46.3505 22.0583 45.0522 20.5239C43.7538 18.9895 41.7473 18.2223 39.0326 18.2223H29.295V52.5694ZM76.9068 111.703V7.06831H125.064V21.5862H98.3295V49.5596H120.992V65.6709H98.3295V97.5394H125.064V111.703H76.9068ZM150.024 111.703V21.5862H133.736V7.06831H186.85V21.5862H170.562V111.703H150.024ZM194.173 111.703V7.06831H232.415C239.379 7.06831 244.631 8.66173 248.172 11.8486C251.713 14.9174 253.484 19.2255 253.484 24.773V41.0613C253.484 46.6088 252.008 51.2711 249.057 55.0481C246.107 58.8251 241.503 61.0086 235.248 61.5988C239.261 62.189 242.094 63.5463 243.746 65.6709C245.516 67.6774 247.051 70.9823 248.349 75.5855L258.264 111.703H235.425L227.812 77.0019C227.104 74.1691 226.277 71.8085 225.333 69.92C224.507 67.9135 223.268 66.9102 221.615 66.9102H215.596V111.703H194.173ZM215.596 52.5694H224.094C227.399 52.5694 229.759 51.6842 231.176 49.9137C232.592 48.0252 233.3 45.0744 233.3 41.0613V28.491C233.3 24.714 232.651 22.0583 231.353 20.5239C230.054 18.9895 228.048 18.2223 225.333 18.2223H215.596V52.5694ZM292.774 113.828C286.991 113.828 281.915 113.12 277.548 111.703C273.181 110.405 269.758 107.631 267.279 103.382C264.919 99.0148 263.739 92.582 263.739 84.0838V29.1992C263.739 22.9435 264.919 18.1042 267.279 14.6813C269.758 11.2584 273.181 8.8978 277.548 7.59945C282.033 6.18308 287.168 5.47489 292.951 5.47489C298.617 5.47489 303.633 6.18308 308 7.59945C312.485 9.01583 315.967 11.4355 318.446 14.8584C321.043 18.2813 322.341 23.0616 322.341 29.1992V83.9067C322.341 92.523 321.043 99.0148 318.446 103.382C315.967 107.631 312.485 110.405 308 111.703C303.633 113.12 298.558 113.828 292.774 113.828ZM292.774 101.788C294.545 101.788 296.079 101.493 297.377 100.903C298.794 100.313 299.856 99.3098 300.564 97.8935C301.391 96.359 301.804 94.2935 301.804 91.6968V28.314C301.804 25.7173 301.391 23.7107 300.564 22.2944C299.856 20.76 298.794 19.6977 297.377 19.1075C296.079 18.5174 294.545 18.2223 292.774 18.2223C291.004 18.2223 289.469 18.5174 288.171 19.1075C286.873 19.6977 285.81 20.76 284.984 22.2944C284.276 23.7107 283.922 25.7173 283.922 28.314V91.6968C283.922 94.2935 284.276 96.359 284.984 97.8935C285.81 99.3098 286.873 100.313 288.171 100.903C289.469 101.493 291.004 101.788 292.774 101.788Z" fill="#E52A25"/>
<path d="M6.30882 203.703L22.4023 90.4739H48.8416L55.1641 143.161L62.636 90.4739H89.2669L73.1734 203.703H46.9257L39.6453 156.764L32.9397 203.703H6.30882ZM118.655 206.002C111.63 206.002 105.627 205.172 100.646 203.512C95.6642 201.851 92.0879 198.466 89.9165 193.357C87.7452 188.248 87.362 180.649 88.767 170.558L96.6221 114.614C97.5162 108.228 99.6876 103.183 103.136 99.4786C106.585 95.6469 111.055 92.9007 116.547 91.2403C122.04 89.5799 128.234 88.7496 135.132 88.7496C142.156 88.7496 148.16 89.5799 153.141 91.2403C158.25 92.9007 162.018 95.6469 164.445 99.4786C166.999 103.183 167.829 108.228 166.935 114.614L159.08 170.367C157.675 180.585 155.057 188.248 151.225 193.357C147.521 198.466 142.923 201.851 137.431 203.512C131.938 205.172 125.68 206.002 118.655 206.002ZM121.146 188.376C121.784 188.376 122.487 188.248 123.253 187.993C124.147 187.61 124.913 186.971 125.552 186.077C126.318 185.183 126.765 184.033 126.893 182.628L136.664 113.081C136.92 111.549 136.792 110.399 136.281 109.633C135.77 108.739 135.132 108.164 134.365 107.909C133.727 107.525 133.088 107.334 132.449 107.334C131.811 107.334 131.044 107.525 130.15 107.909C129.384 108.164 128.681 108.739 128.043 109.633C127.404 110.399 126.957 111.549 126.702 113.081L116.931 182.628C116.803 184.033 116.931 185.183 117.314 186.077C117.825 186.971 118.399 187.61 119.038 187.993C119.804 188.248 120.507 188.376 121.146 188.376ZM176.403 203.703L176.019 90.4739H207.632L202.842 173.624H203.225L222.767 90.4739H253.23L220.276 203.703H176.403ZM234.583 203.703L266.961 90.4739H311.985L311.793 203.703H277.499L278.457 187.226H271.368L267.728 203.703H234.583ZM273.475 172.474H280.373L285.162 114.423L273.475 172.474Z" fill="#FFCD00"/>
<path d="M7.8723 111.703H2.39833V117.177H7.8723V111.703ZM7.8723 7.06831V1.59434H2.39833V7.06831H7.8723ZM61.8717 11.8486L58.2098 15.9174L58.2479 15.9516L58.2866 15.9852L61.8717 11.8486ZM62.7569 55.0481L67.0705 58.4181V58.4181L62.7569 55.0481ZM48.9472 61.5988L48.4331 56.149L48.1508 67.0145L48.9472 61.5988ZM57.4455 65.6709L53.1246 69.0316L53.2287 69.1654L53.3409 69.2926L57.4455 65.6709ZM62.0487 75.5855L67.3274 74.1365L67.3223 74.118L67.3171 74.0996L62.0487 75.5855ZM71.9633 111.703V117.177H79.1425L77.242 110.254L71.9633 111.703ZM49.1243 111.703L43.7775 112.876L44.721 117.177H49.1243V111.703ZM41.5112 77.0019L46.8581 75.8289L46.841 75.7513L46.8218 75.6743L41.5112 77.0019ZM39.0326 69.92L33.9709 72.0042L34.0471 72.1892L34.1365 72.3681L39.0326 69.92ZM29.295 66.9102V61.4362H23.821V66.9102H29.295ZM29.295 111.703V117.177H34.769V111.703H29.295ZM29.295 52.5694H23.821V58.0434H29.295V52.5694ZM44.8751 49.9137L49.1496 53.3333L49.203 53.2665L49.2543 53.1981L44.8751 49.9137ZM45.0522 20.5239L49.2309 16.988L49.2309 16.988L45.0522 20.5239ZM29.295 18.2223V12.7483H23.821V18.2223H29.295ZM7.8723 111.703H13.3463V7.06831H7.8723H2.39833V111.703H7.8723ZM7.8723 7.06831V12.5423H46.1145V7.06831V1.59434H7.8723V7.06831ZM46.1145 7.06831V12.5423C52.3399 12.5423 56.0521 13.9755 58.2098 15.9174L61.8717 11.8486L65.5336 7.77981C60.6093 3.34801 53.8167 1.59434 46.1145 1.59434V7.06831ZM61.8717 11.8486L58.2866 15.9852C60.4047 17.8209 61.7091 20.4918 61.7091 24.773H67.1831H72.657C72.657 17.9593 70.4205 12.0139 65.4567 7.71196L61.8717 11.8486ZM67.1831 24.773H61.7091V41.0613H67.1831H72.657V24.773H67.1831ZM67.1831 41.0613H61.7091C61.7091 45.5884 60.5271 49.0107 58.4433 51.678L62.7569 55.0481L67.0705 58.4181C70.8882 53.5314 72.657 47.6292 72.657 41.0613H67.1831ZM62.7569 55.0481L58.4433 51.678C56.6833 53.9308 53.6788 55.6541 48.4331 56.149L48.9472 61.5988L49.4614 67.0486C56.727 66.3631 62.929 63.7193 67.0705 58.4181L62.7569 55.0481ZM48.9472 61.5988L48.1508 67.0145C51.4616 67.5014 52.6897 68.4724 53.1246 69.0316L57.4455 65.6709L61.7664 62.3102C58.8964 58.6202 54.4589 56.8765 49.7437 56.1831L48.9472 61.5988ZM57.4455 65.6709L53.3409 69.2926C54.2949 70.3738 55.5559 72.7304 56.7803 77.0715L62.0487 75.5855L67.3171 74.0996C65.9448 69.2342 64.137 64.981 61.5501 62.0492L57.4455 65.6709ZM62.0487 75.5855L56.77 77.0346L66.6846 113.152L71.9633 111.703L77.242 110.254L67.3274 74.1365L62.0487 75.5855ZM71.9633 111.703V106.229H49.1243V111.703V117.177H71.9633V111.703ZM49.1243 111.703L54.4711 110.53L46.8581 75.8289L41.5112 77.0019L36.1644 78.1749L43.7775 112.876L49.1243 111.703ZM41.5112 77.0019L46.8218 75.6743C46.0507 72.5898 45.1048 69.8242 43.9287 67.472L39.0326 69.92L34.1365 72.3681C34.8489 73.7928 35.5555 75.7485 36.2007 78.3295L41.5112 77.0019ZM39.0326 69.92L44.0942 67.8358C43.4525 66.2773 42.4704 64.657 40.9276 63.408C39.2958 62.087 37.3453 61.4362 35.3146 61.4362V66.9102V72.3842C35.1657 72.3842 34.9421 72.3601 34.6822 72.2699C34.4199 72.1789 34.2012 72.0485 34.0392 71.9173C33.7358 71.6716 33.7864 71.5562 33.9709 72.0042L39.0326 69.92ZM35.3146 66.9102V61.4362H29.295V66.9102V72.3842H35.3146V66.9102ZM29.295 66.9102H23.821V111.703H29.295H34.769V66.9102H29.295ZM29.295 111.703V106.229H7.8723V111.703V117.177H29.295V111.703ZM29.295 52.5694V58.0434H37.7933V52.5694V47.0954H29.295V52.5694ZM37.7933 52.5694V58.0434C41.9721 58.0434 46.2854 56.9135 49.1496 53.3333L44.8751 49.9137L40.6007 46.4941C40.5758 46.5252 40.4833 46.6439 40.1203 46.78C39.7126 46.9329 38.9824 47.0954 37.7933 47.0954V52.5694ZM44.8751 49.9137L49.2543 53.1981C51.7274 49.9007 52.4737 45.5107 52.4737 41.0613H46.9997H41.5257C41.5257 44.6381 40.8557 46.1497 40.496 46.6293L44.8751 49.9137ZM46.9997 41.0613H52.4737V28.491H46.9997H41.5257V41.0613H46.9997ZM46.9997 28.491H52.4737C52.4737 24.4148 51.8387 20.07 49.2309 16.988L45.0522 20.5239L40.8734 24.0598C40.8144 23.99 41.0033 24.1804 41.1954 24.9663C41.385 25.7419 41.5257 26.8873 41.5257 28.491H46.9997ZM45.0522 20.5239L49.2309 16.988C46.5606 13.8321 42.7609 12.7483 39.0326 12.7483V18.2223V23.6963C39.8906 23.6963 40.3799 23.8194 40.6186 23.9107C40.8206 23.9879 40.8616 24.0457 40.8734 24.0598L45.0522 20.5239ZM39.0326 18.2223V12.7483H29.295V18.2223V23.6963H39.0326V18.2223ZM29.295 18.2223H23.821V52.5694H29.295H34.769V18.2223H29.295ZM76.9068 111.703H71.4328V117.177H76.9068V111.703ZM76.9068 7.06831V1.59434H71.4328V7.06831H76.9068ZM125.064 7.06831H130.538V1.59434H125.064V7.06831ZM125.064 21.5862V27.0602H130.538V21.5862H125.064ZM98.3295 21.5862V16.1122H92.8555V21.5862H98.3295ZM98.3295 49.5596H92.8555V55.0336H98.3295V49.5596ZM120.992 49.5596H126.466V44.0856H120.992V49.5596ZM120.992 65.6709V71.1449H126.466V65.6709H120.992ZM98.3295 65.6709V60.1969H92.8555V65.6709H98.3295ZM98.3295 97.5394H92.8555V103.013H98.3295V97.5394ZM125.064 97.5394H130.538V92.0654H125.064V97.5394ZM125.064 111.703V117.177H130.538V111.703H125.064ZM76.9068 111.703H82.3808V7.06831H76.9068H71.4328V111.703H76.9068ZM76.9068 7.06831V12.5423H125.064V7.06831V1.59434H76.9068V7.06831ZM125.064 7.06831H119.59V21.5862H125.064H130.538V7.06831H125.064ZM125.064 21.5862V16.1122H98.3295V21.5862V27.0602H125.064V21.5862ZM98.3295 21.5862H92.8555V49.5596H98.3295H103.803V21.5862H98.3295ZM98.3295 49.5596V55.0336H120.992V49.5596V44.0856H98.3295V49.5596ZM120.992 49.5596H115.518V65.6709H120.992H126.466V49.5596H120.992ZM120.992 65.6709V60.1969H98.3295V65.6709V71.1449H120.992V65.6709ZM98.3295 65.6709H92.8555V97.5394H98.3295H103.803V65.6709H98.3295ZM98.3295 97.5394V103.013H125.064V97.5394V92.0654H98.3295V97.5394ZM125.064 97.5394H119.59V111.703H125.064H130.538V97.5394H125.064ZM125.064 111.703V106.229H76.9068V111.703V117.177H125.064V111.703ZM150.024 111.703H144.551V117.177H150.024V111.703ZM150.024 21.5862H155.498V16.1122H150.024V21.5862ZM133.736 21.5862H128.262V27.0602H133.736V21.5862ZM133.736 7.06831V1.59434H128.262V7.06831H133.736ZM186.85 7.06831H192.324V1.59434H186.85V7.06831ZM186.85 21.5862V27.0602H192.324V21.5862H186.85ZM170.562 21.5862V16.1122H165.088V21.5862H170.562ZM170.562 111.703V117.177H176.036V111.703H170.562ZM150.024 111.703H155.498V21.5862H150.024H144.551V111.703H150.024ZM150.024 21.5862V16.1122H133.736V21.5862V27.0602H150.024V21.5862ZM133.736 21.5862H139.21V7.06831H133.736H128.262V21.5862H133.736ZM133.736 7.06831V12.5423H186.85V7.06831V1.59434H133.736V7.06831ZM186.85 7.06831H181.376V21.5862H186.85H192.324V7.06831H186.85ZM186.85 21.5862V16.1122H170.562V21.5862V27.0602H186.85V21.5862ZM170.562 21.5862H165.088V111.703H170.562H176.036V21.5862H170.562ZM170.562 111.703V106.229H150.024V111.703V117.177H170.562V111.703ZM194.173 111.703H188.699V117.177H194.173V111.703ZM194.173 7.06831V1.59434H188.699V7.06831H194.173ZM248.172 11.8486L244.51 15.9174L244.548 15.9516L244.587 15.9852L248.172 11.8486ZM249.057 55.0481L253.371 58.4181V58.4181L249.057 55.0481ZM235.248 61.5988L234.734 56.149L234.451 67.0145L235.248 61.5988ZM243.746 65.6709L239.425 69.0316L239.529 69.1654L239.641 69.2926L243.746 65.6709ZM248.349 75.5855L253.628 74.1365L253.623 74.118L253.618 74.0996L248.349 75.5855ZM258.264 111.703V117.177H265.443L263.543 110.254L258.264 111.703ZM235.425 111.703L230.078 112.876L231.022 117.177H235.425V111.703ZM227.812 77.0019L233.159 75.8289L233.142 75.7513L233.122 75.6743L227.812 77.0019ZM225.333 69.92L220.271 72.0042L220.348 72.1892L220.437 72.3681L225.333 69.92ZM215.596 66.9102V61.4362H210.122V66.9102H215.596ZM215.596 111.703V117.177H221.07V111.703H215.596ZM215.596 52.5694H210.122V58.0434H215.596V52.5694ZM231.176 49.9137L235.45 53.3333L235.504 53.2665L235.555 53.1981L231.176 49.9137ZM231.353 20.5239L235.531 16.988V16.988L231.353 20.5239ZM215.596 18.2223V12.7483H210.122V18.2223H215.596ZM194.173 111.703H199.647V7.06831H194.173H188.699V111.703H194.173ZM194.173 7.06831V12.5423H232.415V7.06831V1.59434H194.173V7.06831ZM232.415 7.06831V12.5423C238.64 12.5423 242.353 13.9755 244.51 15.9174L248.172 11.8486L251.834 7.77981C246.91 3.34801 240.117 1.59434 232.415 1.59434V7.06831ZM248.172 11.8486L244.587 15.9852C246.705 17.8209 248.01 20.4918 248.01 24.773H253.484H258.958C258.958 17.9593 256.721 12.0139 251.757 7.71196L248.172 11.8486ZM253.484 24.773H248.01V41.0613H253.484H258.958V24.773H253.484ZM253.484 41.0613H248.01C248.01 45.5884 246.828 49.0107 244.744 51.678L249.057 55.0481L253.371 58.4181C257.189 53.5314 258.958 47.6292 258.958 41.0613H253.484ZM249.057 55.0481L244.744 51.678C242.984 53.9308 239.979 55.6541 234.734 56.149L235.248 61.5988L235.762 67.0486C243.027 66.3631 249.229 63.7193 253.371 58.4181L249.057 55.0481ZM235.248 61.5988L234.451 67.0145C237.762 67.5014 238.99 68.4724 239.425 69.0316L243.746 65.6709L248.067 62.3102C245.197 58.6202 240.759 56.8765 236.044 56.1831L235.248 61.5988ZM243.746 65.6709L239.641 69.2926C240.595 70.3738 241.856 72.7304 243.081 77.0715L248.349 75.5855L253.618 74.0996C252.245 69.2342 250.438 64.981 247.851 62.0492L243.746 65.6709ZM248.349 75.5855L243.071 77.0346L252.985 113.152L258.264 111.703L263.543 110.254L253.628 74.1365L248.349 75.5855ZM258.264 111.703V106.229H235.425V111.703V117.177H258.264V111.703ZM235.425 111.703L240.772 110.53L233.159 75.8289L227.812 77.0019L222.465 78.1749L230.078 112.876L235.425 111.703ZM227.812 77.0019L233.122 75.6743C232.351 72.5898 231.405 69.8242 230.229 67.472L225.333 69.92L220.437 72.3681C221.149 73.7928 221.856 75.7485 222.501 78.3295L227.812 77.0019ZM225.333 69.92L230.395 67.8358C229.753 66.2773 228.771 64.657 227.228 63.408C225.596 62.087 223.646 61.4362 221.615 61.4362V66.9102V72.3842C221.466 72.3842 221.243 72.3601 220.983 72.2699C220.72 72.1789 220.502 72.0485 220.34 71.9173C220.036 71.6716 220.087 71.5562 220.271 72.0042L225.333 69.92ZM221.615 66.9102V61.4362H215.596V66.9102V72.3842H221.615V66.9102ZM215.596 66.9102H210.122V111.703H215.596H221.07V66.9102H215.596ZM215.596 111.703V106.229H194.173V111.703V117.177H215.596V111.703ZM215.596 52.5694V58.0434H224.094V52.5694V47.0954H215.596V52.5694ZM224.094 52.5694V58.0434C228.273 58.0434 232.586 56.9135 235.45 53.3333L231.176 49.9137L226.901 46.4941C226.876 46.5252 226.784 46.6439 226.421 46.78C226.013 46.9329 225.283 47.0954 224.094 47.0954V52.5694ZM231.176 49.9137L235.555 53.1981C238.028 49.9007 238.774 45.5107 238.774 41.0613H233.3H227.826C227.826 44.6381 227.156 46.1497 226.796 46.6293L231.176 49.9137ZM233.3 41.0613H238.774V28.491H233.3H227.826V41.0613H233.3ZM233.3 28.491H238.774C238.774 24.4148 238.139 20.07 235.531 16.988L231.353 20.5239L227.174 24.0598C227.115 23.99 227.304 24.1804 227.496 24.9663C227.686 25.7419 227.826 26.8873 227.826 28.491H233.3ZM231.353 20.5239L235.531 16.988C232.861 13.8321 229.061 12.7483 225.333 12.7483V18.2223V23.6963C226.191 23.6963 226.68 23.8194 226.919 23.9107C227.121 23.9879 227.162 24.0457 227.174 24.0598L231.353 20.5239ZM225.333 18.2223V12.7483H215.596V18.2223V23.6963H225.333V18.2223ZM215.596 18.2223H210.122V52.5694H215.596H221.07V18.2223H215.596ZM277.548 111.703L279.237 106.496L279.173 106.475L279.108 106.456L277.548 111.703ZM267.279 103.382L262.464 105.985L262.506 106.063L262.551 106.14L267.279 103.382ZM267.279 14.6813L262.846 11.4708L262.809 11.5218L262.773 11.5736L267.279 14.6813ZM277.548 7.59946L279.108 12.8465L279.152 12.8333L279.197 12.8193L277.548 7.59946ZM308 7.59946L306.312 12.8064L306.332 12.813L306.352 12.8193L308 7.59946ZM318.446 14.8584L314.012 18.0689L314.048 18.1182L314.085 18.1668L318.446 14.8584ZM318.446 103.382L313.741 100.584L313.729 100.604L313.718 100.624L318.446 103.382ZM308 111.703L306.478 106.445L306.394 106.469L306.312 106.496L308 111.703ZM297.377 100.903L295.272 95.8503L295.192 95.8839L295.112 95.9199L297.377 100.903ZM300.564 97.8935L295.745 95.2982L295.705 95.3713L295.668 95.4454L300.564 97.8935ZM300.564 22.2944L295.594 24.5883L295.704 24.8262L295.836 25.0525L300.564 22.2944ZM297.377 19.1075L295.112 24.0908L295.192 24.1269L295.272 24.1604L297.377 19.1075ZM284.984 22.2944L280.164 19.6992L280.125 19.7722L280.088 19.8463L284.984 22.2944ZM284.984 97.8935L280.014 100.187L280.124 100.425L280.256 100.652L284.984 97.8935ZM288.171 100.903L290.436 95.9199V95.9199L288.171 100.903ZM292.774 113.828V108.354C287.422 108.354 282.938 107.697 279.237 106.496L277.548 111.703L275.859 116.91C280.892 118.542 286.559 119.302 292.774 119.302V113.828ZM277.548 111.703L279.108 106.456C276.187 105.588 273.846 103.775 272.008 100.624L267.279 103.382L262.551 106.14C265.67 111.487 270.175 115.222 275.988 116.95L277.548 111.703ZM267.279 103.382L272.095 100.779C270.373 97.5926 269.212 92.2374 269.212 84.0838H263.739H258.265C258.265 92.9267 259.465 100.437 262.464 105.985L267.279 103.382ZM263.739 84.0838H269.212V29.1992H263.739H258.265V84.0838H263.739ZM263.739 29.1992H269.212C269.212 23.5269 270.3 19.9439 271.786 17.7891L267.279 14.6813L262.773 11.5736C259.538 16.2646 258.265 22.3601 258.265 29.1992H263.739ZM267.279 14.6813L271.713 17.8919C273.428 15.524 275.801 13.8297 279.108 12.8465L277.548 7.59946L275.988 2.35245C270.561 3.96593 266.089 6.99281 262.846 11.4708L267.279 14.6813ZM277.548 7.59946L279.197 12.8193C283.042 11.6048 287.604 10.9489 292.951 10.9489V5.47488V0.000907898C286.732 0.000907898 281.024 0.761314 275.9 2.37957L277.548 7.59946ZM292.951 5.47488V10.9489C298.172 10.9489 302.6 11.6027 306.312 12.8064L308 7.59946L309.689 2.39249C304.666 0.763428 299.061 0.000907898 292.951 0.000907898V5.47488ZM308 7.59946L306.352 12.8193C309.85 13.924 312.3 15.7042 314.012 18.0689L318.446 14.8584L322.88 11.6478C319.635 7.16669 315.121 4.10763 309.649 2.37956L308 7.59946ZM318.446 14.8584L314.085 18.1668C315.708 20.3064 316.867 23.7597 316.867 29.1992H322.341H327.815C327.815 22.3634 326.377 16.2562 322.807 11.55L318.446 14.8584ZM322.341 29.1992H316.867V83.9067H322.341H327.815V29.1992H322.341ZM322.341 83.9067H316.867C316.867 92.143 315.596 97.4646 313.741 100.584L318.446 103.382L323.151 106.18C326.49 100.565 327.815 92.9031 327.815 83.9067H322.341ZM318.446 103.382L313.718 100.624C311.905 103.731 309.536 105.56 306.478 106.445L308 111.703L309.522 116.961C315.435 115.25 320.029 111.532 323.174 106.14L318.446 103.382ZM308 111.703L306.312 106.496C302.61 107.697 298.126 108.354 292.774 108.354V113.828V119.302C298.989 119.302 304.656 118.542 309.689 116.91L308 111.703ZM292.774 101.788V107.262C295.143 107.262 297.483 106.868 299.643 105.887L297.377 100.903L295.112 95.9199C294.675 96.1185 293.947 96.3145 292.774 96.3145V101.788ZM297.377 100.903L299.483 105.956C302.154 104.843 304.185 102.892 305.46 100.341L300.564 97.8935L295.668 95.4454C295.527 95.7279 295.434 95.7829 295.272 95.8503L297.377 100.903ZM300.564 97.8935L305.384 100.489C306.799 97.8605 307.278 94.7897 307.278 91.6968H301.804H296.33C296.33 93.7973 295.982 94.8576 295.745 95.2982L300.564 97.8935ZM301.804 91.6968H307.278V28.314H301.804H296.33V91.6968H301.804ZM301.804 28.314H307.278C307.278 25.2609 306.813 22.1429 305.293 19.5362L300.564 22.2944L295.836 25.0525C295.968 25.2786 296.33 26.1736 296.33 28.314H301.804ZM300.564 22.2944L305.534 20.0005C304.314 17.3567 302.299 15.228 299.483 14.0546L297.377 19.1075L295.272 24.1604C295.335 24.1865 295.351 24.2029 295.366 24.2175C295.387 24.2387 295.477 24.3347 295.594 24.5883L300.564 22.2944ZM297.377 19.1075L299.643 14.1242C297.483 13.1425 295.143 12.7483 292.774 12.7483V18.2223V23.6963C293.947 23.6963 294.675 23.8922 295.112 24.0908L297.377 19.1075ZM292.774 18.2223V12.7483C290.406 12.7483 288.066 13.1425 285.906 14.1242L288.171 19.1075L290.436 24.0908C290.873 23.8922 291.602 23.6963 292.774 23.6963V18.2223ZM288.171 19.1075L285.906 14.1242C283.294 15.3116 281.429 17.3504 280.164 19.6992L284.984 22.2944L289.804 24.8896C290.004 24.5182 290.171 24.3173 290.271 24.2175C290.363 24.1255 290.416 24.1 290.436 24.0908L288.171 19.1075ZM284.984 22.2944L280.088 19.8463C278.831 22.3595 278.448 25.3477 278.448 28.314H283.922H289.396C289.396 26.0868 289.72 25.0619 289.88 24.7424L284.984 22.2944ZM283.922 28.314H278.448V91.6968H283.922H289.396V28.314H283.922ZM283.922 91.6968H278.448C278.448 94.7021 278.844 97.6522 280.014 100.187L284.984 97.8935L289.954 95.5995C289.708 95.0659 289.396 93.8849 289.396 91.6968H283.922ZM284.984 97.8935L280.256 100.652C281.565 102.895 283.427 104.76 285.906 105.887L288.171 100.903L290.436 95.9199C290.319 95.8664 290.056 95.7246 289.712 95.1353L284.984 97.8935ZM288.171 100.903L285.906 105.887C288.066 106.868 290.406 107.262 292.774 107.262V101.788V96.3145C291.602 96.3145 290.873 96.1185 290.436 95.9199L288.171 100.903ZM6.30882 203.703L0.889317 202.933L0.00180817 209.177H6.30882V203.703ZM22.4023 90.4739V85H17.6513L16.9828 89.7037L22.4023 90.4739ZM48.8416 90.4739L54.2766 89.8217L53.698 85H48.8416V90.4739ZM55.1641 143.161L49.7291 143.813L60.5838 143.93L55.1641 143.161ZM62.636 90.4739V85H57.8836L57.2163 89.7053L62.636 90.4739ZM89.2669 90.4739L94.6864 91.2442L95.5739 85H89.2669V90.4739ZM73.1734 203.703V209.177H77.9244L78.5929 204.473L73.1734 203.703ZM46.9257 203.703L41.5164 204.542L42.2353 209.177H46.9257V203.703ZM39.6453 156.764L45.0546 155.925L34.2264 155.99L39.6453 156.764ZM32.9397 203.703V209.177H37.6873L38.3587 204.477L32.9397 203.703ZM6.30882 203.703L11.7283 204.473L27.8218 91.2442L22.4023 90.4739L16.9828 89.7037L0.889317 202.933L6.30882 203.703ZM22.4023 90.4739V95.9479H48.8416V90.4739V85H22.4023V90.4739ZM48.8416 90.4739L43.4066 91.1261L49.7291 143.813L55.1641 143.161L60.599 142.509L54.2766 89.8217L48.8416 90.4739ZM55.1641 143.161L60.5838 143.93L68.0558 91.2426L62.636 90.4739L57.2163 89.7053L49.7443 142.392L55.1641 143.161ZM62.636 90.4739V95.9479H89.2669V90.4739V85H62.636V90.4739ZM89.2669 90.4739L83.8474 89.7037L67.7539 202.933L73.1734 203.703L78.5929 204.473L94.6864 91.2442L89.2669 90.4739ZM73.1734 203.703V198.229H46.9257V203.703V209.177H73.1734V203.703ZM46.9257 203.703L52.335 202.864L45.0546 155.925L39.6453 156.764L34.236 157.603L41.5164 204.542L46.9257 203.703ZM39.6453 156.764L34.2264 155.99L27.5208 202.929L32.9397 203.703L38.3587 204.477L45.0643 157.538L39.6453 156.764ZM32.9397 203.703V198.229H6.30882V203.703V209.177H32.9397V203.703ZM100.646 203.512L98.9145 208.705L100.646 203.512ZM89.9165 193.357L94.9544 191.216V191.216L89.9165 193.357ZM88.767 170.558L83.3462 169.797L83.3453 169.803L88.767 170.558ZM96.6221 114.614L102.043 115.375L102.043 115.373L96.6221 114.614ZM103.136 99.4786L107.143 103.209L107.174 103.175L107.205 103.141L103.136 99.4786ZM116.547 91.2403L114.963 86.0006V86.0006L116.547 91.2403ZM153.141 91.2403L151.41 96.4334L151.429 96.4399L151.449 96.4462L153.141 91.2403ZM164.445 99.4786L159.82 102.408L159.878 102.498L159.938 102.586L164.445 99.4786ZM166.935 114.614L172.356 115.378L172.356 115.373L166.935 114.614ZM159.08 170.367L153.66 169.603L153.658 169.612L153.657 169.621L159.08 170.367ZM151.225 193.357L146.846 190.073L146.819 190.108L146.793 190.144L151.225 193.357ZM137.431 203.512L135.847 198.272V198.272L137.431 203.512ZM123.253 187.993L124.984 193.186L125.2 193.114L125.409 193.024L123.253 187.993ZM125.552 186.077L121.396 182.515L121.238 182.698L121.098 182.895L125.552 186.077ZM126.893 182.628L121.472 181.867L121.454 181.999L121.442 182.133L126.893 182.628ZM136.664 113.081L131.265 112.182L131.253 112.251L131.244 112.32L136.664 113.081ZM136.281 109.633L131.528 112.349L131.622 112.512L131.726 112.669L136.281 109.633ZM134.365 107.909L131.549 112.602L132.064 112.912L132.634 113.102L134.365 107.909ZM130.15 107.909L131.881 113.102L132.097 113.03L132.307 112.94L130.15 107.909ZM128.043 109.633L132.248 113.137L132.379 112.981L132.497 112.815L128.043 109.633ZM126.702 113.081L121.302 112.182L121.291 112.251L121.281 112.32L126.702 113.081ZM116.931 182.628L111.51 181.867L111.491 181.999L111.479 182.133L116.931 182.628ZM117.314 186.077L112.282 188.233L112.406 188.521L112.561 188.793L117.314 186.077ZM119.038 187.993L116.222 192.687L116.737 192.996L117.307 193.186L119.038 187.993ZM118.655 206.002V200.528C112.032 200.528 106.647 199.742 102.377 198.318L100.646 203.512L98.9145 208.705C104.607 210.602 111.228 211.476 118.655 211.476V206.002ZM100.646 203.512L102.377 198.318C98.978 197.186 96.5517 194.975 94.9544 191.216L89.9165 193.357L84.8787 195.498C87.624 201.958 92.3504 206.517 98.9145 208.705L100.646 203.512ZM89.9165 193.357L94.9544 191.216C93.3764 187.503 92.8231 181.121 94.1887 171.313L88.767 170.558L83.3453 169.803C81.9009 180.176 82.114 188.993 84.8787 195.498L89.9165 193.357ZM88.767 170.558L94.1878 171.319L102.043 115.375L96.6221 114.614L91.2013 113.853L83.3462 169.797L88.767 170.558ZM96.6221 114.614L102.043 115.373C102.824 109.794 104.645 105.891 107.143 103.209L103.136 99.4786L99.1298 95.7486C94.73 100.474 92.2081 106.662 91.201 113.855L96.6221 114.614ZM103.136 99.4786L107.205 103.141C109.911 100.134 113.485 97.8849 118.132 96.4801L116.547 91.2403L114.963 86.0006C108.626 87.9166 103.258 91.1602 99.0674 95.8167L103.136 99.4786ZM116.547 91.2403L118.132 96.4801C123.019 95.0026 128.666 94.2236 135.132 94.2236V88.7496V83.2757C127.802 83.2757 121.061 84.1572 114.963 86.0006L116.547 91.2403ZM135.132 88.7496V94.2236C141.754 94.2236 147.139 95.0098 151.41 96.4334L153.141 91.2403L154.872 86.0472C149.18 84.1499 142.559 83.2757 135.132 83.2757V88.7496ZM153.141 91.2403L151.449 96.4462C155.579 97.7885 158.197 99.8442 159.82 102.408L164.445 99.4786L169.069 96.5498C165.839 91.4495 160.921 88.013 154.833 86.0344L153.141 91.2403ZM164.445 99.4786L159.938 102.586C161.434 104.755 162.3 108.243 161.514 113.855L166.935 114.614L172.356 115.373C173.359 108.213 172.564 101.61 168.951 96.3709L164.445 99.4786ZM166.935 114.614L161.515 113.85L153.66 169.603L159.08 170.367L164.501 171.13L172.356 115.378L166.935 114.614ZM159.08 170.367L153.657 169.621C152.309 179.425 149.877 186.031 146.846 190.073L151.225 193.357L155.604 196.642C160.237 190.465 163.041 181.744 164.503 171.112L159.08 170.367ZM151.225 193.357L146.793 190.144C143.717 194.387 140.078 196.992 135.847 198.272L137.431 203.512L139.015 208.751C145.767 206.71 151.325 202.546 155.657 196.57L151.225 193.357ZM137.431 203.512L135.847 198.272C130.968 199.747 125.259 200.528 118.655 200.528V206.002V211.476C126.101 211.476 132.909 210.597 139.015 208.751L137.431 203.512ZM121.146 188.376V193.85C122.505 193.85 123.8 193.58 124.984 193.186L123.253 187.993L121.522 182.8C121.173 182.916 121.064 182.902 121.146 182.902V188.376ZM123.253 187.993L125.409 193.024C127.339 192.197 128.863 190.86 130.006 189.259L125.552 186.077L121.098 182.895C121.023 183 120.984 183.03 120.994 183.021C120.998 183.018 121.011 183.008 121.031 182.996C121.051 182.983 121.073 182.971 121.097 182.961L123.253 187.993ZM125.552 186.077L129.708 189.639C131.351 187.723 132.135 185.432 132.345 183.124L126.893 182.628L121.442 182.133C121.418 182.397 121.374 182.526 121.36 182.56C121.35 182.587 121.358 182.558 121.396 182.515L125.552 186.077ZM126.893 182.628L132.314 183.39L142.085 113.843L136.664 113.081L131.244 112.32L121.472 181.867L126.893 182.628ZM136.664 113.081L142.064 113.981C142.402 111.955 142.5 109.093 140.836 106.596L136.281 109.633L131.726 112.669C131.388 112.162 131.328 111.752 131.32 111.674C131.312 111.61 131.336 111.754 131.265 112.182L136.664 113.081ZM136.281 109.633L141.034 106.917C140.044 105.185 138.461 103.504 136.096 102.715L134.365 107.909L132.634 113.102C132.259 112.976 131.961 112.784 131.757 112.6C131.567 112.429 131.507 112.31 131.528 112.349L136.281 109.633ZM134.365 107.909L137.182 103.215C135.835 102.407 134.235 101.86 132.449 101.86V107.334V112.808C132.213 112.808 132.003 112.771 131.834 112.721C131.671 112.671 131.575 112.618 131.549 112.602L134.365 107.909ZM132.449 107.334V101.86C130.785 101.86 129.248 102.34 127.994 102.877L130.15 107.909L132.307 112.94C132.422 112.89 132.516 112.855 132.587 112.83C132.659 112.805 132.704 112.793 132.723 112.788C132.743 112.783 132.729 112.788 132.686 112.793C132.643 112.799 132.562 112.808 132.449 112.808V107.334ZM130.15 107.909L128.419 102.715C126.222 103.448 124.662 104.949 123.588 106.451L128.043 109.633L132.497 112.815C132.701 112.529 132.546 112.88 131.881 113.102L130.15 107.909ZM128.043 109.633L123.838 106.129C122.322 107.947 121.636 110.178 121.302 112.182L126.702 113.081L132.101 113.981C132.182 113.495 132.273 113.202 132.33 113.054C132.388 112.906 132.385 112.973 132.248 113.137L128.043 109.633ZM126.702 113.081L121.281 112.32L111.51 181.867L116.931 182.628L122.351 183.39L132.122 113.843L126.702 113.081ZM116.931 182.628L111.479 182.133C111.304 184.063 111.416 186.212 112.282 188.233L117.314 186.077L122.345 183.921C122.401 184.051 122.386 184.078 122.371 183.94C122.356 183.8 122.345 183.537 122.382 183.124L116.931 182.628ZM117.314 186.077L112.561 188.793C113.368 190.204 114.529 191.671 116.222 192.687L119.038 187.993L121.854 183.299C122.067 183.426 122.175 183.54 122.197 183.565C122.216 183.586 122.165 183.534 122.067 183.361L117.314 186.077ZM119.038 187.993L117.307 193.186C118.491 193.58 119.786 193.85 121.146 193.85V188.376V182.902C121.227 182.902 121.118 182.916 120.769 182.8L119.038 187.993ZM176.403 203.703L170.929 203.722L170.947 209.177H176.403V203.703ZM176.019 90.4739V85H170.527L170.545 90.4925L176.019 90.4739ZM207.632 90.4739L213.096 90.7887L213.43 85H207.632V90.4739ZM202.842 173.624L197.377 173.309L197.043 179.098H202.842V173.624ZM203.225 173.624V179.098H207.562L208.554 174.876L203.225 173.624ZM222.767 90.4739V85H218.431L217.438 89.2216L222.767 90.4739ZM253.23 90.4739L258.486 92.0036L260.524 85H253.23V90.4739ZM220.276 203.703V209.177H224.384L225.532 205.233L220.276 203.703ZM176.403 203.703L181.876 203.685L181.493 90.4554L176.019 90.4739L170.545 90.4925L170.929 203.722L176.403 203.703ZM176.019 90.4739V95.9479H207.632V90.4739V85H176.019V90.4739ZM207.632 90.4739L202.167 90.1591L197.377 173.309L202.842 173.624L208.307 173.938L213.096 90.7887L207.632 90.4739ZM202.842 173.624V179.098H203.225V173.624V168.15H202.842V173.624ZM203.225 173.624L208.554 174.876L228.096 91.7263L222.767 90.4739L217.438 89.2216L197.896 172.371L203.225 173.624ZM222.767 90.4739V95.9479H253.23V90.4739V85H222.767V90.4739ZM253.23 90.4739L247.974 88.9443L215.021 202.173L220.276 203.703L225.532 205.233L258.486 92.0036L253.23 90.4739ZM220.276 203.703V198.229H176.403V203.703V209.177H220.276V203.703ZM234.583 203.703L229.32 202.198L227.324 209.177H234.583V203.703ZM266.961 90.4739V85H262.833L261.698 88.969L266.961 90.4739ZM311.985 90.4739L317.459 90.4832L317.468 85H311.985V90.4739ZM311.793 203.703V209.177H317.258L317.267 203.712L311.793 203.703ZM277.499 203.703L272.034 203.385L271.697 209.177H277.499V203.703ZM278.457 187.226L283.921 187.544L284.258 181.752H278.457V187.226ZM271.368 187.226V181.752H266.971L266.023 186.046L271.368 187.226ZM267.728 203.703V209.177H272.124L273.073 204.884L267.728 203.703ZM273.475 172.474L268.109 171.394L266.79 177.948H273.475V172.474ZM280.373 172.474V177.948H285.414L285.828 172.924L280.373 172.474ZM285.162 114.423L290.618 114.873L279.796 113.342L285.162 114.423ZM234.583 203.703L239.846 205.208L272.224 91.9789L266.961 90.4739L261.698 88.969L229.32 202.198L234.583 203.703ZM266.961 90.4739V95.9479H311.985V90.4739V85H266.961V90.4739ZM311.985 90.4739L306.511 90.4647L306.319 203.694L311.793 203.703L317.267 203.712L317.459 90.4832L311.985 90.4739ZM311.793 203.703V198.229H277.499V203.703V209.177H311.793V203.703ZM277.499 203.703L282.964 204.021L283.921 187.544L278.457 187.226L272.992 186.909L272.034 203.385L277.499 203.703ZM278.457 187.226V181.752H271.368V187.226V192.7H278.457V187.226ZM271.368 187.226L266.023 186.046L262.383 202.522L267.728 203.703L273.073 204.884L276.713 188.407L271.368 187.226ZM267.728 203.703V198.229H234.583V203.703V209.177H267.728V203.703ZM273.475 172.474V177.948H280.373V172.474V167H273.475V172.474ZM280.373 172.474L285.828 172.924L290.618 114.873L285.162 114.423L279.707 113.972L274.917 172.024L280.373 172.474ZM285.162 114.423L279.796 113.342L268.109 171.394L273.475 172.474L278.842 173.554L290.529 115.503L285.162 114.423Z" fill="black" mask="url(#path-2-outside-1_982_476)"/>
</svg>
